<svg width="349" height="62" viewBox="0 0 349 62" fill="none" xmlns="http://www.w3.org/2000/svg">
<rect x="0.5" y="0.5" width="348" height="61" rx="7.5" fill="white" stroke="#292830"/>
<path d="M31.154 37H24.386V24.868H31.064V26.146H25.844V30.304H30.452V31.582H25.844V35.722H31.154V37ZM40.5316 37H39.1096V31.096C39.1096 30.424 38.9356 29.914 38.5876 29.566C38.2516 29.206 37.8076 29.026 37.2556 29.026C36.5716 29.026 35.9776 29.29 35.4736 29.818C34.9816 30.346 34.7356 31.078 34.7356 32.014V37H33.3316V27.874H34.7356V29.458C35.2756 28.318 36.2356 27.748 37.6156 27.748C38.5036 27.748 39.2116 28.018 39.7396 28.558C40.2676 29.098 40.5316 29.818 40.5316 30.718V37ZM47.6243 36.766C47.2283 36.982 46.7843 37.09 46.2923 37.09C44.4923 37.09 43.5923 36.172 43.5923 34.336V29.026H42.1343V27.874H43.5923V25.606H45.0143V27.874H47.5343V29.026H45.0143V34.372C45.0143 35.344 45.4703 35.83 46.3823 35.83C46.8503 35.83 47.2643 35.692 47.6243 35.416V36.766ZM56.3568 36.532C55.6488 36.904 54.7848 37.09 53.7648 37.09C52.3848 37.09 51.2688 36.67 50.4168 35.83C49.5768 34.978 49.1568 33.856 49.1568 32.464C49.1568 31.012 49.5348 29.866 50.2908 29.026C51.0468 28.186 52.0188 27.766 53.2068 27.766C54.3468 27.766 55.2528 28.132 55.9248 28.864C56.5968 29.596 56.9328 30.634 56.9328 31.978C56.9328 32.362 56.9028 32.716 56.8428 33.04H50.6148C50.7228 33.94 51.0648 34.63 51.6408 35.11C52.2168 35.59 52.9728 35.83 53.9088 35.83C54.9288 35.83 55.7448 35.62 56.3568 35.2V36.532ZM53.2068 29.008C52.5228 29.008 51.9408 29.254 51.4608 29.746C50.9808 30.238 50.6988 30.94 50.6148 31.852H55.5108V31.492C55.5108 30.736 55.3068 30.136 54.8988 29.692C54.4908 29.236 53.9268 29.008 53.2068 29.008ZM60.5051 37H59.0831L59.1011 27.874H60.5051V29.476C60.9851 28.348 61.8131 27.784 62.9891 27.784C63.2051 27.784 63.3731 27.796 63.4931 27.82V29.224C63.2411 29.14 62.9831 29.098 62.7191 29.098C62.0831 29.098 61.5551 29.392 61.1351 29.98C60.7151 30.568 60.5051 31.246 60.5051 32.014V37ZM72.9928 36.766C72.5248 38.002 71.9668 38.872 71.3188 39.376C70.6828 39.88 69.9508 40.132 69.1228 40.132C68.8108 40.132 68.5588 40.102 68.3668 40.042V38.764C68.5468 38.812 68.7508 38.836 68.9788 38.836C70.1908 38.836 71.0488 38.146 71.5528 36.766L67.8628 27.874H69.4648L70.6528 30.88L72.2548 35.02C72.3508 34.708 72.8308 33.328 73.6948 30.88L74.7568 27.874H76.2868L72.9928 36.766ZM85.9377 32.464C85.9377 33.82 85.5537 34.942 84.7857 35.83C84.0177 36.718 82.9617 37.162 81.6177 37.162C80.3097 37.162 79.2717 36.724 78.5037 35.848C77.7477 34.96 77.3697 33.844 77.3697 32.5C77.3697 31.144 77.7597 30.016 78.5397 29.116C79.3317 28.204 80.3577 27.748 81.6177 27.748C82.9977 27.748 84.0597 28.192 84.8037 29.08C85.5597 29.968 85.9377 31.096 85.9377 32.464ZM78.8457 32.482C78.8457 33.43 79.0977 34.24 79.6017 34.912C80.1057 35.572 80.7777 35.902 81.6177 35.902C82.5297 35.902 83.2317 35.578 83.7237 34.93C84.2157 34.27 84.4617 33.454 84.4617 32.482C84.4617 31.474 84.2277 30.646 83.7597 29.998C83.2917 29.338 82.5777 29.008 81.6177 29.008C80.7537 29.008 80.0757 29.344 79.5837 30.016C79.0917 30.688 78.8457 31.51 78.8457 32.482ZM95.1091 37H93.6871V35.416C93.2071 36.544 92.2531 37.108 90.8251 37.108C89.9251 37.108 89.2111 36.844 88.6831 36.316C88.1671 35.776 87.9091 35.056 87.9091 34.156V27.874H89.3311V33.796C89.3311 34.456 89.4991 34.96 89.8351 35.308C90.1711 35.656 90.6271 35.83 91.2031 35.83C91.9591 35.83 92.5591 35.566 93.0031 35.038C93.4591 34.51 93.6871 33.796 93.6871 32.896V27.874H95.1091V37ZM99.1418 37H97.7198L97.7378 27.874H99.1418V29.476C99.6218 28.348 100.45 27.784 101.626 27.784C101.842 27.784 102.01 27.796 102.13 27.82V29.224C101.878 29.14 101.62 29.098 101.356 29.098C100.72 29.098 100.192 29.392 99.7718 29.98C99.3518 30.568 99.1418 31.246 99.1418 32.014V37ZM114.329 36.532C113.621 36.904 112.757 37.09 111.737 37.09C110.357 37.09 109.241 36.67 108.389 35.83C107.549 34.978 107.129 33.856 107.129 32.464C107.129 31.012 107.507 29.866 108.263 29.026C109.019 28.186 109.991 27.766 111.179 27.766C112.319 27.766 113.225 28.132 113.897 28.864C114.569 29.596 114.905 30.634 114.905 31.978C114.905 32.362 114.875 32.716 114.815 33.04H108.587C108.695 33.94 109.037 34.63 109.613 35.11C110.189 35.59 110.945 35.83 111.881 35.83C112.901 35.83 113.717 35.62 114.329 35.2V36.532ZM111.179 29.008C110.495 29.008 109.913 29.254 109.433 29.746C108.953 30.238 108.671 30.94 108.587 31.852H113.483V31.492C113.483 30.736 113.279 30.136 112.871 29.692C112.463 29.236 111.899 29.008 111.179 29.008ZM129.278 37H127.856V31.096C127.856 29.716 127.274 29.026 126.11 29.026C125.534 29.026 125.018 29.29 124.562 29.818C124.106 30.334 123.878 31.066 123.878 32.014V37H122.456V31.096C122.456 29.716 121.874 29.026 120.71 29.026C120.134 29.026 119.618 29.29 119.162 29.818C118.706 30.334 118.478 31.066 118.478 32.014V37H117.074V27.874H118.478V29.35C118.982 28.282 119.84 27.748 121.052 27.748C122.456 27.748 123.344 28.342 123.716 29.53C123.98 28.954 124.346 28.516 124.814 28.216C125.294 27.904 125.828 27.748 126.416 27.748C127.364 27.748 128.078 28.018 128.558 28.558C129.038 29.098 129.278 29.824 129.278 30.736V37ZM134.594 35.902C135.242 35.902 135.758 35.722 136.142 35.362C136.526 34.99 136.718 34.522 136.718 33.958V32.788H135.134C134.366 32.788 133.79 32.938 133.406 33.238C133.022 33.538 132.83 33.916 132.83 34.372C132.83 34.828 132.98 35.2 133.28 35.488C133.58 35.764 134.018 35.902 134.594 35.902ZM136.736 35.92C136.268 36.7 135.416 37.09 134.18 37.09C133.328 37.09 132.638 36.838 132.11 36.334C131.594 35.83 131.336 35.194 131.336 34.426C131.336 33.55 131.666 32.872 132.326 32.392C132.998 31.9 133.91 31.654 135.062 31.654H136.718V31.186C136.718 30.466 136.556 29.926 136.232 29.566C135.908 29.194 135.362 29.008 134.594 29.008C133.622 29.008 132.758 29.266 132.002 29.782V28.36C132.686 27.94 133.586 27.73 134.702 27.73C136.994 27.73 138.14 28.894 138.14 31.222V37H136.736V35.92ZM142.158 37H140.736V27.874H142.158V37ZM142.104 24.346C142.284 24.526 142.374 24.748 142.374 25.012C142.374 25.276 142.284 25.498 142.104 25.678C141.924 25.846 141.702 25.93 141.438 25.93C141.174 25.93 140.952 25.846 140.772 25.678C140.604 25.498 140.52 25.276 140.52 25.012C140.52 24.748 140.604 24.526 140.772 24.346C140.952 24.166 141.174 24.076 141.438 24.076C141.702 24.076 141.924 24.166 142.104 24.346ZM146.359 37H144.937V24.274H146.359V37Z" fill="#292830"/>
<rect x="241" y="7" width="102" height="48" rx="8" fill="#FF7235"/>
<path d="M266.632 32.976C266.632 33.936 266.285 34.704 265.592 35.28C264.909 35.8453 264.008 36.128 262.888 36.128C261.672 36.128 260.664 35.8987 259.864 35.44V33.376C260.781 34.0373 261.784 34.368 262.872 34.368C263.363 34.368 263.757 34.2507 264.056 34.016C264.355 33.7707 264.504 33.4453 264.504 33.04C264.504 32.848 264.467 32.6773 264.392 32.528C264.317 32.3787 264.163 32.2293 263.928 32.08C263.704 31.9307 263.528 31.824 263.4 31.76C263.283 31.696 263.032 31.5787 262.648 31.408C262.541 31.3547 262.461 31.3173 262.408 31.296C262.013 31.1147 261.693 30.9547 261.448 30.816C261.203 30.6667 260.936 30.4693 260.648 30.224C260.36 29.9787 260.141 29.6853 259.992 29.344C259.853 29.0027 259.784 28.6133 259.784 28.176C259.784 27.2587 260.12 26.5227 260.792 25.968C261.475 25.4133 262.376 25.136 263.496 25.136C264.509 25.136 265.384 25.312 266.12 25.664V27.616C265.32 27.136 264.467 26.896 263.56 26.896C263.059 26.896 262.664 27.008 262.376 27.232C262.099 27.456 261.96 27.744 261.96 28.096C261.96 28.448 262.109 28.7413 262.408 28.976C262.717 29.2 263.176 29.4507 263.784 29.728C264.211 29.92 264.557 30.0907 264.824 30.24C265.091 30.3787 265.379 30.576 265.688 30.832C266.008 31.088 266.243 31.3973 266.392 31.76C266.552 32.112 266.632 32.5173 266.632 32.976ZM275.281 36H273.345V34.672C272.919 35.6107 272.087 36.08 270.849 36.08C270.028 36.08 269.388 35.8453 268.929 35.376C268.471 34.9067 268.241 34.24 268.241 33.376V27.888H270.161V32.928C270.161 33.44 270.284 33.8293 270.529 34.096C270.785 34.3627 271.132 34.496 271.569 34.496C272.124 34.496 272.556 34.3093 272.865 33.936C273.185 33.5627 273.345 32.9973 273.345 32.24V27.888H275.281V36ZM279.32 36H277.384V24.688H279.32V29.12C279.885 28.224 280.696 27.776 281.752 27.776C282.765 27.776 283.597 28.1547 284.248 28.912C284.909 29.6587 285.24 30.672 285.24 31.952C285.24 33.104 284.925 34.0853 284.296 34.896C283.677 35.7067 282.835 36.112 281.768 36.112C280.701 36.112 279.885 35.6587 279.32 34.752V36ZM279.32 31.872C279.32 32.7147 279.512 33.36 279.896 33.808C280.28 34.2453 280.76 34.464 281.336 34.464C281.891 34.464 282.355 34.2347 282.728 33.776C283.101 33.3173 283.288 32.72 283.288 31.984C283.288 31.1733 283.096 30.544 282.712 30.096C282.339 29.6373 281.875 29.408 281.32 29.408C280.797 29.408 280.333 29.616 279.928 30.032C279.523 30.4373 279.32 31.0507 279.32 31.872ZM292.18 33.664C292.18 34.4213 291.908 35.0133 291.364 35.44C290.82 35.8667 290.094 36.08 289.188 36.08C288.185 36.08 287.374 35.9147 286.756 35.584V33.824C287.47 34.304 288.244 34.544 289.076 34.544C289.428 34.544 289.7 34.48 289.892 34.352C290.094 34.2133 290.196 34.0267 290.196 33.792C290.196 33.6533 290.164 33.5307 290.1 33.424C290.036 33.3067 289.913 33.1947 289.732 33.088C289.55 32.9813 289.406 32.9067 289.3 32.864C289.204 32.8107 289.006 32.72 288.708 32.592C288.676 32.5813 288.649 32.5707 288.628 32.56C288.617 32.5493 288.596 32.5387 288.564 32.528C288.532 32.5173 288.505 32.5067 288.484 32.496C287.3 31.9627 286.708 31.1947 286.708 30.192C286.708 29.4453 286.99 28.8587 287.556 28.432C288.121 28.0053 288.83 27.792 289.684 27.792C290.505 27.792 291.188 27.9093 291.732 28.144V29.84C291.198 29.52 290.532 29.36 289.732 29.36C289.401 29.36 289.14 29.4347 288.948 29.584C288.766 29.7227 288.676 29.904 288.676 30.128C288.676 30.2133 288.686 30.2933 288.708 30.368C288.74 30.4427 288.788 30.5173 288.852 30.592C288.926 30.656 288.996 30.7147 289.06 30.768C289.124 30.8213 289.214 30.88 289.332 30.944C289.449 30.9973 289.55 31.0453 289.636 31.088C289.721 31.1307 289.838 31.184 289.988 31.248C290.137 31.312 290.254 31.3653 290.34 31.408C290.905 31.6853 291.353 31.9947 291.684 32.336C292.014 32.6773 292.18 33.12 292.18 33.664ZM299.584 35.648C299.019 35.9787 298.315 36.144 297.472 36.144C296.224 36.144 295.211 35.7493 294.432 34.96C293.664 34.1707 293.28 33.1733 293.28 31.968C293.291 30.784 293.675 29.7867 294.432 28.976C295.2 28.1653 296.245 27.76 297.568 27.76C298.357 27.76 299.029 27.9093 299.584 28.208V29.904C299.051 29.5627 298.443 29.392 297.76 29.392C297.013 29.392 296.411 29.6267 295.952 30.096C295.493 30.5653 295.259 31.1893 295.248 31.968C295.269 32.736 295.499 33.3547 295.936 33.824C296.384 34.2933 296.987 34.528 297.744 34.528C298.405 34.528 299.019 34.3467 299.584 33.984V35.648ZM303.148 36H301.212L301.228 27.888H303.148V29.328C303.521 28.3253 304.204 27.824 305.196 27.824C305.42 27.824 305.601 27.84 305.74 27.872V29.728C305.494 29.6213 305.222 29.568 304.924 29.568C304.401 29.568 303.974 29.7813 303.644 30.208C303.313 30.6347 303.148 31.168 303.148 31.808V36ZM308.868 36H306.948V27.888H308.868V36ZM309.06 25.456C309.06 25.7867 308.948 26.064 308.724 26.288C308.5 26.512 308.228 26.624 307.908 26.624C307.588 26.624 307.316 26.512 307.092 26.288C306.868 26.064 306.756 25.7867 306.756 25.456C306.756 25.136 306.868 24.864 307.092 24.64C307.316 24.416 307.588 24.304 307.908 24.304C308.228 24.304 308.5 24.416 308.724 24.64C308.948 24.864 309.06 25.136 309.06 25.456ZM312.976 36H311.04V24.688H312.976V29.12C313.542 28.224 314.352 27.776 315.408 27.776C316.422 27.776 317.254 28.1547 317.904 28.912C318.566 29.6587 318.896 30.672 318.896 31.952C318.896 33.104 318.582 34.0853 317.952 34.896C317.334 35.7067 316.491 36.112 315.424 36.112C314.358 36.112 313.542 35.6587 312.976 34.752V36ZM312.976 31.872C312.976 32.7147 313.168 33.36 313.552 33.808C313.936 34.2453 314.416 34.464 314.992 34.464C315.547 34.464 316.011 34.2347 316.384 33.776C316.758 33.3173 316.944 32.72 316.944 31.984C316.944 31.1733 316.752 30.544 316.368 30.096C315.995 29.6373 315.531 29.408 314.976 29.408C314.454 29.408 313.99 29.616 313.584 30.032C313.179 30.4373 312.976 31.0507 312.976 31.872ZM326.732 35.552C326.167 35.904 325.351 36.08 324.284 36.08C322.993 36.08 321.975 35.696 321.228 34.928C320.481 34.16 320.108 33.168 320.108 31.952C320.108 30.6613 320.46 29.648 321.164 28.912C321.868 28.176 322.748 27.808 323.804 27.808C324.86 27.808 325.697 28.128 326.316 28.768C326.935 29.408 327.244 30.3413 327.244 31.568C327.244 31.8667 327.207 32.2507 327.132 32.72H322.044C322.183 33.3067 322.471 33.7547 322.908 34.064C323.356 34.3733 323.911 34.528 324.572 34.528C325.425 34.528 326.145 34.3147 326.732 33.888V35.552ZM323.852 29.312C323.393 29.312 322.993 29.4827 322.652 29.824C322.321 30.1547 322.108 30.64 322.012 31.28H325.42V31.04C325.399 30.5173 325.255 30.1013 324.988 29.792C324.732 29.472 324.353 29.312 323.852 29.312Z" fill="white"/>
</svg>
